<svg width="3500" height="1000" fill="none" xmlns="http://www.w3.org/2000/svg"><path d="M0 1000l3500-535V0H0v1000z" fill="#19191A"/><mask id="a" maskUnits="userSpaceOnUse" x="0" y="0" width="3500" height="1000"><path d="M0 1000l3500-535V0H0v1000z" fill="url(#paint1_linear)"/></mask><g mask="url(#a)"><path opacity=".2" d="M1821.19 725.5l-277.51-277.508c-36.09-36.093-36.09-94.602 0-130.696L1865.48-4.5M1513.71-1l-469.62 469.619c-36.35 36.35-95.296 36.35-131.646 0L678.109 234.287c-36.35-36.351-95.295-36.351-131.646 0L-3.891 784.641" stroke="#fff" stroke-width="2" stroke-miterlimit="10"/><path opacity=".2" d="M979.011 1l-137.28 137.279c-34.573 34.574-90.636 34.574-125.21 0L576.742-1.5M2715.9-2l-137.28 137.279c-34.57 34.574-90.63 34.574-125.21 0L2317-1.134M24.988-6.5l164.189 164.189c45.458 45.458 45.458 119.165 0 164.634L-4 515.5m191.5 521.34l308.763-308.761 153.762-153.761c43.044-43.044 112.839-43.044 155.895 0l284.19 284.193M1505 771.462l-272.52-272.521c-17.57-17.566-17.57-46.039 0-63.605l30.26-30.26c17.57-17.567 46.04-17.567 63.6 0L1671 749.731M2035.13 703l-293.96-293.96c-17.56-17.566-17.56-46.039 0-63.605l30.27-30.26c17.56-17.567 46.03-17.567 63.6 0l352.46 352.459" stroke="#fff" stroke-width="2" stroke-miterlimit="10"/><path d="M1362.7 156.396c3.17 0 5.7-2.532 5.7-5.698a5.674 5.674 0 00-5.7-5.698 5.671 5.671 0 00-5.69 5.698c-.16 3.008 2.53 5.698 5.69 5.698zm419-71c3.17 0 5.7-2.532 5.7-5.698a5.673 5.673 0 00-5.7-5.698 5.671 5.671 0 00-5.69 5.698c-.16 3.008 2.53 5.698 5.69 5.698zm-1644.386 563.5a5.674 5.674 0 005.698-5.698 5.674 5.674 0 00-5.698-5.698 5.675 5.675 0 00-5.698 5.698c-.158 3.008 2.533 5.698 5.698 5.698zm464-20.596a5.674 5.674 0 005.698-5.698 5.674 5.674 0 00-5.698-5.698 5.674 5.674 0 00-5.698 5.698c-.158 3.007 2.533 5.698 5.698 5.698zM217.732 205.906a5.675 5.675 0 005.698-5.699 5.674 5.674 0 00-5.698-5.698 5.674 5.674 0 00-5.698 5.698c-.158 3.008 2.532 5.699 5.698 5.699zm631.067-68.873a5.674 5.674 0 005.698-5.698 5.674 5.674 0 00-5.698-5.698 5.675 5.675 0 00-5.699 5.698c-.158 3.007 2.533 5.698 5.699 5.698zm1736.891-3a5.68 5.68 0 005.7-5.698 5.68 5.68 0 00-5.7-5.698c-3.17 0-5.7 2.532-5.7 5.698-.16 3.007 2.53 5.698 5.7 5.698zm722.01 100.363c3.17 0 5.7-2.532 5.7-5.698a5.674 5.674 0 00-5.7-5.698 5.671 5.671 0 00-5.69 5.698c-.16 3.008 2.53 5.698 5.69 5.698zm-498 96c3.17 0 5.7-2.532 5.7-5.698a5.674 5.674 0 00-5.7-5.698 5.671 5.671 0 00-5.69 5.698c-.16 3.008 2.53 5.698 5.69 5.698zm-593 20c3.17 0 5.7-2.532 5.7-5.698a5.674 5.674 0 00-5.7-5.698 5.671 5.671 0 00-5.69 5.698c-.16 3.008 2.53 5.698 5.69 5.698z" fill="#fff"/><path fill-rule="evenodd" clip-rule="evenodd" d="M2562.23 363l8.23 8.231-8.23 8.23-8.23-8.23 8.23-8.231zm320-245l8.23 8.231-8.23 8.23-8.23-8.23 8.23-8.231zm286-67l8.23 8.23-8.23 8.231-8.23-8.23 8.23-8.231zm-1290 488l8.23 8.231-8.23 8.23-8.23-8.23 8.23-8.231zm-499 98l8.23 8.231-8.23 8.23-8.23-8.23 8.23-8.231zm-526.495-24.566l8.23 8.231-8.23 8.23-8.231-8.23 8.231-8.231zM91.754 411.294l8.23 8.23-8.23 8.231-8.23-8.231 8.23-8.23z" fill="#fff"/><path opacity=".2" d="M2112.5-1l-142.14 142.145c-19.53 19.526-19.53 51.184 0 70.71l154.28 154.29c19.53 19.526 51.19 19.526 70.72 0l145.78-145.79c19.53-19.526 51.19-19.526 70.72 0L2781.5 590m256-38.5l-255.14-255.145c-19.53-19.526-19.53-51.184 0-70.71L3009.5-1.5M3227-4l-174.14 174.145c-19.53 19.526-19.53 51.184 0 70.71l86.28 86.29c19.53 19.526 51.19 19.526 70.72 0l126.28-126.29c19.53-19.526 51.19-19.526 70.72 0L3500 294" stroke="#fff" stroke-width="2" stroke-miterlimit="10"/></g><defs><linearGradient id="paint0_linear" x1="1750" y1="0" x2="1750" y2="842.76" gradientUnits="userSpaceOnUse"><stop stop-color="#24CB85"/><stop offset="1" stop-color="#1AAB91"/></linearGradient><linearGradient id="paint1_linear" x1="1750" y1="0" x2="1750" y2="842.76" gradientUnits="userSpaceOnUse"><stop stop-color="#24CB85"/><stop offset="1" stop-color="#1AAB91"/></linearGradient></defs></svg>