<?xml version="1.0" encoding="iso-8859-1"?>
<!-- Generator: Adobe Illustrator 22.0.0, SVG Export Plug-In . SVG Version: 6.00 Build 0)  -->
<svg version="1.1" id="Capa_1" xmlns="http://www.w3.org/2000/svg" xmlns:xlink="http://www.w3.org/1999/xlink" x="0px" y="0px"
	 viewBox="0 0 510 510" style="enable-background:new 0 0 510 510;" xml:space="preserve">
<g>
	<g>
		<g>
			<radialGradient id="SVGID_1_" cx="202.2566" cy="149.7304" r="249.8145" gradientUnits="userSpaceOnUse">
				<stop  offset="0" style="stop-color:#FFDA45"/>
				<stop  offset="0.3043" style="stop-color:#FFCE3E"/>
				<stop  offset="0.8558" style="stop-color:#FFAE2B"/>
				<stop  offset="1" style="stop-color:#FFA425"/>
			</radialGradient>
			<path style="fill:url(#SVGID_1_);" d="M412.882,209.244c0-88.696-73.14-160.31-162.398-157.819
				C165.699,53.791,97.525,123.656,97.12,208.473c-0.206,43.151,16.902,82.303,44.777,110.916
				c25.627,26.306,40.228,61.408,40.228,98.133v12.086h145.751v-12.086c0-36.549,14.284-71.671,39.871-97.769
				C395.665,291.279,412.882,252.274,412.882,209.244z"/>
			<linearGradient id="SVGID_2_" gradientUnits="userSpaceOnUse" x1="272.6287" y1="226.8727" x2="112.4804" y2="66.7243">
				<stop  offset="0" style="stop-color:#FFDA45;stop-opacity:0"/>
				<stop  offset="1" style="stop-color:#FCEE21"/>
			</linearGradient>
			<circle style="fill:url(#SVGID_2_);" cx="255" cy="209.244" r="147.694"/>
			<linearGradient id="SVGID_3_" gradientUnits="userSpaceOnUse" x1="265.4414" y1="165.3022" x2="236.7325" y2="43.6945">
				<stop  offset="0" style="stop-color:#FFDA45;stop-opacity:0"/>
				<stop  offset="1" style="stop-color:#FFFFFF"/>
			</linearGradient>
			<ellipse style="fill:url(#SVGID_3_);" cx="255" cy="121.074" rx="95.801" ry="55.685"/>
			<linearGradient id="SVGID_4_" gradientUnits="userSpaceOnUse" x1="260.483" y1="269.7523" x2="477.4995" y2="-133.868">
				<stop  offset="0" style="stop-color:#FFDA45;stop-opacity:0"/>
				<stop  offset="1" style="stop-color:#B53759"/>
			</linearGradient>
			<path style="fill:url(#SVGID_4_);" d="M325.625,68.013c10.648,21.252,16.651,45.236,16.651,70.625
				c0,87.196-70.686,157.882-157.882,157.882c-25.389,0-49.373-6.002-70.625-16.651c25.922,51.736,79.425,87.257,141.231,87.257
				c87.196,0,157.882-70.686,157.882-157.882C412.882,147.437,377.361,93.935,325.625,68.013z"/>
		</g>
		<radialGradient id="SVGID_5_" cx="255" cy="294.2918" r="95.8012" gradientUnits="userSpaceOnUse">
			<stop  offset="0" style="stop-color:#FCEE21;stop-opacity:0.6"/>
			<stop  offset="0.3263" style="stop-color:#FDEA28;stop-opacity:0.4042"/>
			<stop  offset="0.7865" style="stop-color:#FEE03A;stop-opacity:0.1281"/>
			<stop  offset="1" style="stop-color:#FFDA45;stop-opacity:0"/>
		</radialGradient>
		<circle style="fill:url(#SVGID_5_);" cx="255" cy="294.292" r="95.801"/>
		<linearGradient id="SVGID_6_" gradientUnits="userSpaceOnUse" x1="182.0684" y1="451.8235" x2="327.9316" y2="451.8235">
			<stop  offset="0" style="stop-color:#7E8595"/>
			<stop  offset="1" style="stop-color:#555A66"/>
		</linearGradient>
		<path style="fill:url(#SVGID_6_);" d="M312.479,496.961L312.479,496.961c-36.347,17.385-78.61,17.385-114.958,0h0
			c-9.442-4.516-15.453-14.054-15.453-24.521v-78.793h145.863v78.793C327.932,482.907,321.921,492.445,312.479,496.961z"/>
		<linearGradient id="SVGID_7_" gradientUnits="userSpaceOnUse" x1="254.8827" y1="424.1194" x2="255.2034" y2="406.8017">
			<stop  offset="0" style="stop-color:#555A66;stop-opacity:0"/>
			<stop  offset="1" style="stop-color:#555A66"/>
		</linearGradient>
		<polygon style="fill:url(#SVGID_7_);" points="182.068,410.617 196.53,425.079 327.932,425.079 327.932,410.494 182.068,410.494 
					"/>
		<linearGradient id="SVGID_8_" gradientUnits="userSpaceOnUse" x1="254.8827" y1="460.0605" x2="255.2034" y2="442.7428">
			<stop  offset="0" style="stop-color:#555A66;stop-opacity:0"/>
			<stop  offset="1" style="stop-color:#555A66"/>
		</linearGradient>
		<polygon style="fill:url(#SVGID_8_);" points="182.068,446.558 196.53,461.02 327.932,461.02 327.932,446.435 182.068,446.435 		
			"/>
		<linearGradient id="SVGID_9_" gradientUnits="userSpaceOnUse" x1="254.7477" y1="494.3283" x2="255.0679" y2="477.0351">
			<stop  offset="0" style="stop-color:#555A66;stop-opacity:0"/>
			<stop  offset="1" style="stop-color:#555A66"/>
		</linearGradient>
		<path style="fill:url(#SVGID_9_);" d="M183.37,480.703c0.245,0.766,0.523,1.519,0.833,2.257l12.328,12.328h118.923
			c5.348-3.44,9.272-8.62,11.177-14.585H183.37z"/>
		<linearGradient id="SVGID_10_" gradientUnits="userSpaceOnUse" x1="255" y1="329.7291" x2="255" y2="279.0221">
			<stop  offset="0" style="stop-color:#FFDA45;stop-opacity:0"/>
			<stop  offset="1" style="stop-color:#FCEE21"/>
		</linearGradient>
		<path style="fill:url(#SVGID_10_);" d="M296.087,294.292h-2.962c-11.739,0-21.289,9.55-21.289,21.289v6.857H255h-16.837v-6.857
			c0-11.739-9.55-21.289-21.289-21.289h-2.962c-11.739,0-21.289,9.55-21.289,21.289c0,11.739,9.55,21.289,21.289,21.289h9.819
			v55.076h14.432v-55.076H255h16.837v55.076h14.431v-55.076h9.819c11.739,0,21.289-9.55,21.289-21.289
			C317.376,303.842,307.826,294.292,296.087,294.292z M223.732,322.438h-9.819c-3.781,0-6.857-3.076-6.857-6.857
			c0-3.781,3.076-6.857,6.857-6.857h2.962c3.781,0,6.857,3.076,6.857,6.857V322.438z M296.087,322.438h-9.819v-6.857
			c0-3.781,3.076-6.857,6.857-6.857h2.962c3.781,0,6.857,3.076,6.857,6.857C302.945,319.362,299.869,322.438,296.087,322.438z"/>
		<linearGradient id="SVGID_11_" gradientUnits="userSpaceOnUse" x1="255" y1="339.9915" x2="255" y2="400.2966">
			<stop  offset="0" style="stop-color:#FFDA45;stop-opacity:0"/>
			<stop  offset="1" style="stop-color:#B53759"/>
		</linearGradient>
		<path style="fill:url(#SVGID_11_);" d="M296.087,294.292h-2.962c-11.739,0-21.289,9.55-21.289,21.289v6.857H255h-16.837v-6.857
			c0-11.739-9.55-21.289-21.289-21.289h-2.962c-11.739,0-21.289,9.55-21.289,21.289c0,11.739,9.55,21.289,21.289,21.289h9.819
			v55.076h14.432v-55.076H255h16.837v55.076h14.431v-55.076h9.819c11.739,0,21.289-9.55,21.289-21.289
			C317.376,303.842,307.826,294.292,296.087,294.292z M223.732,322.438h-9.819c-3.781,0-6.857-3.076-6.857-6.857
			c0-3.781,3.076-6.857,6.857-6.857h2.962c3.781,0,6.857,3.076,6.857,6.857V322.438z M296.087,322.438h-9.819v-6.857
			c0-3.781,3.076-6.857,6.857-6.857h2.962c3.781,0,6.857,3.076,6.857,6.857C302.945,319.362,299.869,322.438,296.087,322.438z"/>
		<linearGradient id="SVGID_12_" gradientUnits="userSpaceOnUse" x1="254.6219" y1="389.7942" x2="255.5526" y2="411.6664">
			<stop  offset="0" style="stop-color:#F9F7FC"/>
			<stop  offset="1" style="stop-color:#F0DDFC"/>
		</linearGradient>
		<path style="fill:url(#SVGID_12_);" d="M323.95,411.187H186.05c-6.908,0-12.507-5.6-12.507-12.507l0,0
			c0-6.908,5.6-12.507,12.507-12.507H323.95c6.908,0,12.507,5.6,12.507,12.507l0,0C336.458,405.587,330.858,411.187,323.95,411.187z
			"/>
		<linearGradient id="SVGID_13_" gradientUnits="userSpaceOnUse" x1="254.6219" y1="425.762" x2="255.5526" y2="447.6342">
			<stop  offset="0" style="stop-color:#7E8595"/>
			<stop  offset="1" style="stop-color:#555A66"/>
		</linearGradient>
		<path style="fill:url(#SVGID_13_);" d="M323.95,447.155H186.05c-6.908,0-12.507-5.6-12.507-12.507v0
			c0-6.908,5.6-12.507,12.507-12.507H323.95c6.908,0,12.507,5.6,12.507,12.507v0C336.458,441.555,330.858,447.155,323.95,447.155z"
			/>
		<linearGradient id="SVGID_14_" gradientUnits="userSpaceOnUse" x1="254.6219" y1="461.7297" x2="255.5526" y2="483.602">
			<stop  offset="0" style="stop-color:#7E8595"/>
			<stop  offset="1" style="stop-color:#555A66"/>
		</linearGradient>
		<path style="fill:url(#SVGID_14_);" d="M323.95,483.122H186.05c-6.908,0-12.507-5.6-12.507-12.507l0,0
			c0-6.908,5.6-12.507,12.507-12.507H323.95c6.908,0,12.507,5.6,12.507,12.507l0,0C336.458,477.523,330.858,483.122,323.95,483.122z
			"/>
		<linearGradient id="SVGID_15_" gradientUnits="userSpaceOnUse" x1="254.3219" y1="496.3265" x2="258.1702" y2="524.2273">
			<stop  offset="0" style="stop-color:#F9F7FC"/>
			<stop  offset="1" style="stop-color:#F0DDFC"/>
		</linearGradient>
		<path style="fill:url(#SVGID_15_);" d="M302.488,501.243c-13.268-4.502-29.696-7.168-47.488-7.168s-34.221,2.665-47.488,7.168
			C238.087,512.912,271.913,512.912,302.488,501.243z"/>
	</g>
	<g>
		<g>
			<linearGradient id="SVGID_16_" gradientUnits="userSpaceOnUse" x1="64.6397" y1="208.5401" x2="64.6397" y2="229.2284">
				<stop  offset="0" style="stop-color:#92F37F"/>
				<stop  offset="1" style="stop-color:#4AB272"/>
			</linearGradient>
			<path style="fill:url(#SVGID_16_);" d="M75.107,220.936H54.173c-5.553,0-10.054-4.501-10.054-10.054l0,0
				c0-5.553,4.501-10.054,10.054-10.054h20.934c5.553,0,10.054,4.502,10.054,10.054l0,0
				C85.161,216.435,80.66,220.936,75.107,220.936z"/>
			<linearGradient id="SVGID_17_" gradientUnits="userSpaceOnUse" x1="445.3603" y1="208.5401" x2="445.3603" y2="229.2284">
				<stop  offset="0" style="stop-color:#92F37F"/>
				<stop  offset="1" style="stop-color:#4AB272"/>
			</linearGradient>
			<path style="fill:url(#SVGID_17_);" d="M455.827,220.936h-20.934c-5.553,0-10.054-4.501-10.054-10.054l0,0
				c0-5.553,4.501-10.054,10.054-10.054h20.934c5.553,0,10.054,4.502,10.054,10.054l0,0
				C465.882,216.435,461.38,220.936,455.827,220.936z"/>
		</g>
		<g>
			
				<linearGradient id="SVGID_18_" gradientUnits="userSpaceOnUse" x1="103.7389" y1="169.441" x2="103.7389" y2="190.1293" gradientTransform="matrix(0 1 1 0 83.2175 -83.2175)">
				<stop  offset="0" style="stop-color:#92F37F"/>
				<stop  offset="1" style="stop-color:#4AB272"/>
			</linearGradient>
			<path style="fill:url(#SVGID_18_);" d="M265.054,30.988V10.054C265.054,4.502,260.553,0,255,0l0,0
				c-5.553,0-10.054,4.502-10.054,10.054v20.934c0,5.553,4.501,10.054,10.054,10.054l0,0
				C260.553,41.043,265.054,36.541,265.054,30.988z"/>
		</g>
		<g>
			
				<linearGradient id="SVGID_19_" gradientUnits="userSpaceOnUse" x1="92.3589" y1="197.1535" x2="92.3589" y2="217.8421" gradientTransform="matrix(0.7071 0.7071 -0.7071 0.7071 196.1509 -130.0933)">
				<stop  offset="0" style="stop-color:#92F37F"/>
				<stop  offset="1" style="stop-color:#4AB272"/>
			</linearGradient>
			<path style="fill:url(#SVGID_19_);" d="M120.687,90.787l-14.803-14.803c-3.926-3.926-3.926-10.292,0-14.219l0,0
				c3.926-3.926,10.293-3.926,14.219,0l14.803,14.803c3.926,3.926,3.926,10.292,0,14.219l0,0
				C130.979,94.714,124.613,94.714,120.687,90.787z"/>
		</g>
		<g>
			
				<linearGradient id="SVGID_20_" gradientUnits="userSpaceOnUse" x1="92.359" y1="197.1535" x2="92.359" y2="217.8421" gradientTransform="matrix(-0.7071 0.7071 0.7071 0.7071 313.8491 -130.0933)">
				<stop  offset="0" style="stop-color:#92F37F"/>
				<stop  offset="1" style="stop-color:#4AB272"/>
			</linearGradient>
			<path style="fill:url(#SVGID_20_);" d="M389.313,90.787l14.803-14.803c3.927-3.926,3.927-10.292,0-14.219l0,0
				c-3.926-3.926-10.292-3.926-14.219,0l-14.803,14.803c-3.926,3.926-3.926,10.292,0,14.219l0,0
				C379.021,94.714,385.387,94.714,389.313,90.787z"/>
		</g>
	</g>
</g>
<g>
</g>
<g>
</g>
<g>
</g>
<g>
</g>
<g>
</g>
<g>
</g>
<g>
</g>
<g>
</g>
<g>
</g>
<g>
</g>
<g>
</g>
<g>
</g>
<g>
</g>
<g>
</g>
<g>
</g>
</svg>
