<?xml version="1.0" encoding="iso-8859-1"?>
<!-- Generator: Adobe Illustrator 22.0.0, SVG Export Plug-In . SVG Version: 6.00 Build 0)  -->
<svg version="1.1" id="Capa_1" xmlns="http://www.w3.org/2000/svg" xmlns:xlink="http://www.w3.org/1999/xlink" x="0px" y="0px"
	 viewBox="0 0 510 510" style="enable-background:new 0 0 510 510;" xml:space="preserve">
<g>
	<g>
		<g>
			<g>
				<linearGradient id="SVGID_1_" gradientUnits="userSpaceOnUse" x1="209.5409" y1="422.5541" x2="281.9962" y2="429.4547">
					<stop  offset="0" style="stop-color:#7E8595"/>
					<stop  offset="1" style="stop-color:#555A66"/>
				</linearGradient>
				<path style="fill:url(#SVGID_1_);" d="M276.416,397.541l-4.721-26.864h-33.39l-4.721,26.864
					c-4.987,28.379-20.195,52.955-41.812,67.57h0c-5.651,3.821-3.308,13.827,3.238,13.827h119.979c6.546,0,8.89-10.006,3.238-13.827
					l0,0C296.611,450.496,281.403,425.92,276.416,397.541z"/>
				<linearGradient id="SVGID_2_" gradientUnits="userSpaceOnUse" x1="272.6022" y1="432.1641" x2="155.6022" y2="404.1641">
					<stop  offset="0" style="stop-color:#BEC3D2;stop-opacity:0"/>
					<stop  offset="0.221" style="stop-color:#C5C9D7;stop-opacity:0.221"/>
					<stop  offset="0.5343" style="stop-color:#D7DAE3;stop-opacity:0.5343"/>
					<stop  offset="0.9014" style="stop-color:#F6F6F8;stop-opacity:0.9014"/>
					<stop  offset="1" style="stop-color:#FFFFFF"/>
				</linearGradient>
				<path style="fill:url(#SVGID_2_);" d="M318.228,465.111L318.228,465.111c-21.617-14.616-36.824-39.191-41.812-67.57
					l-4.721-26.864h-15.645l-4.721,26.864c-4.987,28.379-20.195,52.955-41.812,67.57l0,0c-5.651,3.821-3.308,13.827,3.238,13.827
					h102.234C321.536,478.938,323.879,468.932,318.228,465.111z"/>
			</g>
			<linearGradient id="SVGID_3_" gradientUnits="userSpaceOnUse" x1="326.0935" y1="451.8127" x2="222.7602" y2="349.146">
				<stop  offset="0" style="stop-color:#555A66;stop-opacity:0"/>
				<stop  offset="1" style="stop-color:#555A66"/>
			</linearGradient>
			<path style="fill:url(#SVGID_3_);" d="M318.228,465.111L318.228,465.111c-21.617-14.616-36.824-39.192-41.812-67.57
				l-4.721-26.864h-33.39l-3.059,17.408l85.817,85.817C321.956,470.829,321.196,467.118,318.228,465.111z"/>
		</g>
		<linearGradient id="SVGID_4_" gradientUnits="userSpaceOnUse" x1="223.8797" y1="130.8416" x2="389.9311" y2="550.9379">
			<stop  offset="0" style="stop-color:#7E8595"/>
			<stop  offset="1" style="stop-color:#555A66"/>
		</linearGradient>
		<path style="fill:url(#SVGID_4_);" d="M494.098,388.085H15.902C7.12,388.085,0,380.965,0,372.183V46.964
			c0-8.783,7.12-15.902,15.902-15.902h478.195c8.783,0,15.902,7.12,15.902,15.902v325.219
			C510,380.965,502.88,388.085,494.098,388.085z"/>
		<linearGradient id="SVGID_5_" gradientUnits="userSpaceOnUse" x1="465" y1="419.5734" x2="-135.9001" y2="-181.3267">
			<stop  offset="0" style="stop-color:#7E8595"/>
			<stop  offset="1" style="stop-color:#555A66"/>
		</linearGradient>
		<path style="fill:url(#SVGID_5_);" d="M486.067,380.027H23.933c-8.435,0-15.273-6.838-15.273-15.273V54.393
			c0-8.435,6.838-15.273,15.273-15.273h462.133c8.435,0,15.273,6.838,15.273,15.273v310.36
			C501.34,373.189,494.502,380.027,486.067,380.027z"/>
		<linearGradient id="SVGID_6_" gradientUnits="userSpaceOnUse" x1="516.8953" y1="443.1047" x2="355.0003" y2="281.2097">
			<stop  offset="0" style="stop-color:#555A66;stop-opacity:0"/>
			<stop  offset="1" style="stop-color:#555A66"/>
		</linearGradient>
		<path style="fill:url(#SVGID_6_);" d="M510,372.183V257.389L405.768,153.157c-23.056-24.349-55.684-39.54-91.864-39.54
			c-69.862,0-126.497,56.635-126.497,126.497c0,36.179,15.192,68.808,39.54,91.864l56.108,56.108h211.042
			C502.88,388.085,510,380.965,510,372.183z"/>
		<g>
			<linearGradient id="SVGID_7_" gradientUnits="userSpaceOnUse" x1="227.546" y1="140.1171" x2="374.0347" y2="510.7212">
				<stop  offset="0" style="stop-color:#18CFFC"/>
				<stop  offset="1" style="stop-color:#4A98F7"/>
			</linearGradient>
			<path style="fill:url(#SVGID_7_);" d="M472.59,364.515H37.409c-7.061,0-12.785-5.724-12.785-12.785V67.417
				c0-7.061,5.724-12.786,12.785-12.786H472.59c7.061,0,12.786,5.724,12.786,12.786V351.73
				C485.376,358.791,479.652,364.515,472.59,364.515z"/>
			<g>
				<linearGradient id="SVGID_8_" gradientUnits="userSpaceOnUse" x1="53" y1="209.5735" x2="12.9875" y2="209.5735">
					<stop  offset="0" style="stop-color:#0469BC;stop-opacity:0"/>
					<stop  offset="1" style="stop-color:#0469BC"/>
				</linearGradient>
				<path style="fill:url(#SVGID_8_);" d="M66,54.632H37.409c-7.061,0-12.785,5.724-12.785,12.786V351.73
					c0,7.061,5.724,12.785,12.785,12.785H66V54.632z"/>
				<linearGradient id="SVGID_9_" gradientUnits="userSpaceOnUse" x1="255" y1="84.5735" x2="255" y2="42.277">
					<stop  offset="0" style="stop-color:#0469BC;stop-opacity:0"/>
					<stop  offset="1" style="stop-color:#0469BC"/>
				</linearGradient>
				<path style="fill:url(#SVGID_9_);" d="M472.59,54.632H37.409c-7.061,0-12.785,5.724-12.785,12.786v23.156h460.752V67.417
					C485.376,60.356,479.652,54.632,472.59,54.632z"/>
			</g>
		</g>
		<linearGradient id="SVGID_10_" gradientUnits="userSpaceOnUse" x1="493.7304" y1="390.4782" x2="329.3239" y2="255.4777">
			<stop  offset="0" style="stop-color:#0469BC;stop-opacity:0"/>
			<stop  offset="1" style="stop-color:#0469BC"/>
		</linearGradient>
		<path style="fill:url(#SVGID_10_);" d="M485.38,231.84v119.89c0,7.55-5.96,12.79-13.71,12.79H259.49l-32.54-32.54
			c0,0-0.01,0-0.01-0.01c-0.68-0.64-1.35-1.29-2.01-1.95c-0.67-0.66-1.33-1.32-1.98-2c-0.55-0.57-1.1-1.15-1.65-1.74
			c-0.12-0.12-0.23-0.24-0.34-0.37c-0.57-0.62-1.14-1.24-1.7-1.87c-0.05-0.05-0.09-0.1-0.13-0.15c-0.62-0.7-1.23-1.41-1.84-2.13
			c-0.01,0-0.01-0.01-0.02-0.02c-0.54-0.65-1.09-1.3-1.62-1.96c-0.11-0.13-0.21-0.25-0.31-0.38c-0.46-0.58-0.92-1.16-1.38-1.74
			c-0.17-0.21-0.34-0.43-0.5-0.65c-0.47-0.62-0.94-1.24-1.4-1.87c-0.56-0.76-1.11-1.52-1.65-2.29c-0.54-0.76-1.08-1.54-1.6-2.32
			c-0.47-0.69-0.93-1.39-1.38-2.1c-0.09-0.14-0.18-0.28-0.27-0.42c-0.95-1.49-1.87-3.01-2.77-4.55c-0.08-0.13-0.15-0.25-0.22-0.38
			c-0.41-0.73-0.83-1.46-1.23-2.21c-0.46-0.82-0.9-1.66-1.34-2.5c-0.44-0.84-0.86-1.68-1.28-2.53c-0.37-0.75-0.73-1.51-1.09-2.27
			c-0.06-0.12-0.11-0.23-0.16-0.35c-0.38-0.81-0.75-1.63-1.11-2.46c-0.03-0.06-0.06-0.12-0.08-0.19c-0.36-0.83-0.72-1.68-1.07-2.53
			c-0.02-0.04-0.04-0.08-0.05-0.11c-0.34-0.84-0.68-1.69-1-2.54c-0.05-0.11-0.09-0.22-0.13-0.34c-0.3-0.78-0.59-1.57-0.87-2.35
			c-0.32-0.9-0.63-1.81-0.93-2.72c-0.31-0.91-0.6-1.82-0.88-2.74c-0.28-0.92-0.55-1.84-0.81-2.77c-0.26-0.91-0.51-1.83-0.75-2.75
			c0-0.01-0.01-0.03-0.01-0.05c-0.23-0.92-0.46-1.85-0.68-2.79c-0.02-0.07-0.04-0.13-0.05-0.2c-0.2-0.89-0.4-1.78-0.58-2.67
			c-0.2-0.96-0.39-1.91-0.56-2.87c-0.18-0.96-0.34-1.92-0.5-2.88v-0.02c-0.15-0.97-0.3-1.94-0.43-2.91
			c-0.26-1.95-0.48-3.91-0.66-5.89l37.54-24.71c-0.66,4.36-1,8.83-1,13.38c0,49.4,40.04,89.45,89.44,89.45
			c49.4,0,89.45-40.05,89.45-89.45c0-41.57-28.35-76.5-66.78-86.54l37.55-24.72c0.74,0.39,1.47,0.8,2.2,1.22
			c2.19,1.25,4.33,2.56,6.44,3.92c1.4,0.91,2.79,1.85,4.15,2.82c0.08,0.04,0.15,0.1,0.22,0.15c0.6,0.43,1.19,0.86,1.78,1.29
			c0.02,0.01,0.04,0.02,0.06,0.04c0.62,0.46,1.23,0.92,1.83,1.38c2.7,2.06,5.3,4.23,7.82,6.51c0.49,0.44,0.97,0.88,1.45,1.33
			c0.21,0.19,0.41,0.38,0.61,0.57c0.53,0.5,1.06,1.01,1.58,1.52h0.01c0.6,0.59,1.18,1.17,1.76,1.76c0.49,0.49,0.96,0.98,1.44,1.48
			c0.1,0.1,0.2,0.21,0.3,0.32L485.38,231.84z"/>
		<linearGradient id="SVGID_11_" gradientUnits="userSpaceOnUse" x1="322.4054" y1="354.5698" x2="50.9016" y2="-229.4648">
			<stop  offset="0" style="stop-color:#18CFFC;stop-opacity:0"/>
			<stop  offset="1" style="stop-color:#65E1DC"/>
		</linearGradient>
		<path style="fill:url(#SVGID_11_);" d="M458.022,349.616H51.978c-6.436,0-11.654-5.218-11.654-11.654V81.184
			c0-6.436,5.218-11.654,11.654-11.654h406.044c6.436,0,11.654,5.218,11.654,11.654v256.778
			C469.676,344.399,464.458,349.616,458.022,349.616z"/>
		<g>
			<linearGradient id="SVGID_12_" gradientUnits="userSpaceOnUse" x1="51.1998" y1="298.073" x2="126.5228" y2="298.073">
				<stop  offset="0" style="stop-color:#F9F7FC"/>
				<stop  offset="1" style="stop-color:#F0DDFC"/>
			</linearGradient>
			<path style="fill:url(#SVGID_12_);" d="M122.628,306.823H55.094c-2.151,0-3.894-1.744-3.894-3.894v-9.711
				c0-2.151,1.744-3.894,3.894-3.894h67.534c2.151,0,3.894,1.744,3.894,3.894v9.711
				C126.523,305.079,124.779,306.823,122.628,306.823z"/>
			<linearGradient id="SVGID_13_" gradientUnits="userSpaceOnUse" x1="141.9393" y1="298.073" x2="163.4254" y2="298.073">
				<stop  offset="0" style="stop-color:#F9F7FC"/>
				<stop  offset="1" style="stop-color:#F0DDFC"/>
			</linearGradient>
			<path style="fill:url(#SVGID_13_);" d="M159.531,306.823h-13.697c-2.151,0-3.894-1.744-3.894-3.894v-9.711
				c0-2.151,1.744-3.894,3.894-3.894h13.697c2.151,0,3.894,1.744,3.894,3.894v9.711
				C163.425,305.079,161.682,306.823,159.531,306.823z"/>
			<linearGradient id="SVGID_14_" gradientUnits="userSpaceOnUse" x1="51.1998" y1="325.6728" x2="102.1224" y2="325.6728">
				<stop  offset="0" style="stop-color:#F9F7FC"/>
				<stop  offset="1" style="stop-color:#F0DDFC"/>
			</linearGradient>
			<path style="fill:url(#SVGID_14_);" d="M98.228,334.422H55.094c-2.151,0-3.894-1.744-3.894-3.894v-9.711
				c0-2.151,1.744-3.894,3.894-3.894h43.134c2.151,0,3.894,1.744,3.894,3.894v9.711C102.122,332.679,100.379,334.422,98.228,334.422
				z"/>
			<linearGradient id="SVGID_15_" gradientUnits="userSpaceOnUse" x1="117.0833" y1="325.6728" x2="163.4254" y2="325.6728">
				<stop  offset="0" style="stop-color:#F9F7FC"/>
				<stop  offset="1" style="stop-color:#F0DDFC"/>
			</linearGradient>
			<path style="fill:url(#SVGID_15_);" d="M159.531,334.422h-38.553c-2.151,0-3.894-1.744-3.894-3.894v-9.711
				c0-2.151,1.744-3.894,3.894-3.894h38.553c2.151,0,3.894,1.744,3.894,3.894v9.711
				C163.425,332.679,161.682,334.422,159.531,334.422z"/>
		</g>
		<g>
			<linearGradient id="SVGID_16_" gradientUnits="userSpaceOnUse" x1="255" y1="163.3333" x2="255" y2="245.8628">
				<stop  offset="0" style="stop-color:#F9F7FC"/>
				<stop  offset="1" style="stop-color:#F0DDFC"/>
			</linearGradient>
			<path style="fill:url(#SVGID_16_);" d="M447.221,232.569H62.779c-6.395,0-11.579-5.184-11.579-11.579v-52.072
				c0-6.395,5.184-11.579,11.579-11.579h384.442c6.395,0,11.579,5.184,11.579,11.579v52.072
				C458.8,227.385,453.616,232.569,447.221,232.569z"/>
			<linearGradient id="SVGID_17_" gradientUnits="userSpaceOnUse" x1="255" y1="224" x2="255" y2="158.3917">
				<stop  offset="0" style="stop-color:#F9F7FC"/>
				<stop  offset="1" style="stop-color:#F0DDFC"/>
			</linearGradient>
			<path style="fill:url(#SVGID_17_);" d="M75.231,169.174h359.537c5.098,0,9.231,4.133,9.231,9.231v33.096
				c0,5.098-4.133,9.231-9.231,9.231H75.231c-5.098,0-9.231-4.133-9.231-9.231v-33.096C66,173.307,70.133,169.174,75.231,169.174z"
				/>
		</g>
		<linearGradient id="SVGID_18_" gradientUnits="userSpaceOnUse" x1="255" y1="467.7284" x2="255" y2="476.3951">
			<stop  offset="0" style="stop-color:#7E8595"/>
			<stop  offset="1" style="stop-color:#555A66"/>
		</linearGradient>
		<path style="fill:url(#SVGID_18_);" d="M325.688,478.938H184.312c-4.384,0-7.938-3.554-7.938-7.938l0,0
			c0-4.384,3.554-7.938,7.938-7.938h141.376c4.384,0,7.938,3.554,7.938,7.938l0,0C333.626,475.384,330.072,478.938,325.688,478.938z
			"/>
	</g>
	<g>
		<linearGradient id="SVGID_19_" gradientUnits="userSpaceOnUse" x1="482.8792" y1="258.4311" x2="376.2125" y2="169.7644">
			<stop  offset="0" style="stop-color:#F0DDFC;stop-opacity:0"/>
			<stop  offset="0.2889" style="stop-color:#C8B7E0;stop-opacity:0.2889"/>
			<stop  offset="0.5915" style="stop-color:#A595C8;stop-opacity:0.5915"/>
			<stop  offset="0.8395" style="stop-color:#8F81B8;stop-opacity:0.8395"/>
			<stop  offset="1" style="stop-color:#8779B3"/>
		</linearGradient>
		<path style="fill:url(#SVGID_19_);" d="M409.998,157.338h-62.185c30.373,12.454,52.372,41.111,55.22,75.231h44.188
			c6.395,0,11.579-5.184,11.579-11.579v-15.419L409.998,157.338z"/>
	</g>
	<g>
		<g>
			<linearGradient id="SVGID_20_" gradientUnits="userSpaceOnUse" x1="364.8824" y1="298.6226" x2="263.536" y2="182.3046">
				<stop  offset="0" style="stop-color:#E9EDF5;stop-opacity:0"/>
				<stop  offset="1" style="stop-color:#FFFFFF"/>
			</linearGradient>
			<circle style="fill:url(#SVGID_20_);" cx="313.904" cy="240.113" r="89.447"/>
			<g>
				
					<linearGradient id="SVGID_21_" gradientUnits="userSpaceOnUse" x1="-1568.3571" y1="-351.1828" x2="-1543.854" y2="-351.1828" gradientTransform="matrix(0.7071 -0.7071 0.7071 0.7071 1762.4429 -518.8434)">
					<stop  offset="0" style="stop-color:#7E8595"/>
					<stop  offset="1" style="stop-color:#555A66"/>
				</linearGradient>
				<polygon style="fill:url(#SVGID_21_);" points="434.555,339.801 413.592,360.764 386.193,333.365 407.156,312.402 				"/>
				
					<linearGradient id="SVGID_22_" gradientUnits="userSpaceOnUse" x1="-1548.4827" y1="-340.7076" x2="-1564.4008" y2="-373.3399" gradientTransform="matrix(0.7071 -0.7071 0.7071 0.7071 1762.4429 -518.8434)">
					<stop  offset="0" style="stop-color:#555A66;stop-opacity:0"/>
					<stop  offset="1" style="stop-color:#555A66"/>
				</linearGradient>
				<polygon style="fill:url(#SVGID_22_);" points="407.156,312.402 386.193,333.365 392.261,339.434 434.187,339.434 				"/>
				<g>
					<linearGradient id="SVGID_23_" gradientUnits="userSpaceOnUse" x1="269.6117" y1="195.821" x2="434.7536" y2="360.9629">
						<stop  offset="0" style="stop-color:#FFDA45"/>
						<stop  offset="1" style="stop-color:#FFA425"/>
					</linearGradient>
					<path style="fill:url(#SVGID_23_);" d="M313.904,113.617c-69.862,0-126.497,56.635-126.497,126.497
						c0,69.862,56.635,126.497,126.497,126.497s126.497-56.635,126.497-126.497C440.401,170.251,383.766,113.617,313.904,113.617z
						 M313.904,329.56c-49.4,0-89.447-40.047-89.447-89.447c0-49.4,40.047-89.447,89.447-89.447c49.4,0,89.447,40.047,89.447,89.447
						C403.351,289.513,363.304,329.56,313.904,329.56z"/>
					<linearGradient id="SVGID_24_" gradientUnits="userSpaceOnUse" x1="278.6217" y1="204.8311" x2="375.8578" y2="302.0671">
						<stop  offset="0" style="stop-color:#FFDA45"/>
						<stop  offset="1" style="stop-color:#FFA425"/>
					</linearGradient>
					<path style="fill:url(#SVGID_24_);" d="M313.904,340.878c55.651,0,100.764-45.114,100.764-100.764
						c0-55.651-45.114-100.764-100.764-100.764c-55.651,0-100.764,45.114-100.764,100.764
						C213.14,295.764,258.253,340.878,313.904,340.878z M313.904,150.667c49.4,0,89.447,40.047,89.447,89.447
						s-40.047,89.447-89.447,89.447c-49.4,0-89.447-40.047-89.447-89.447S264.504,150.667,313.904,150.667z"/>
					
						<linearGradient id="SVGID_25_" gradientUnits="userSpaceOnUse" x1="366.5944" y1="304.035" x2="262.858" y2="5.0293" gradientTransform="matrix(1 0 0 1 -23.9142 -0.632)">
						<stop  offset="0" style="stop-color:#FFDA45;stop-opacity:0"/>
						<stop  offset="1" style="stop-color:#B53759"/>
					</linearGradient>
					<path style="fill:url(#SVGID_25_);" d="M403.628,150.951l-26.198,26.198c16.022,16.164,25.921,38.407,25.921,62.964
						c0,49.4-40.047,89.447-89.447,89.447c-24.557,0-46.8-9.899-62.964-25.921l-26.198,26.198
						c22.869,22.727,54.374,36.772,89.163,36.772c69.862,0,126.497-56.635,126.497-126.497
						C440.401,205.325,426.355,173.82,403.628,150.951z"/>
				</g>
				<g>
					<g>
						
							<linearGradient id="SVGID_26_" gradientUnits="userSpaceOnUse" x1="-1569.3293" y1="-4997.2822" x2="-1540.324" y2="-4968.2769" gradientTransform="matrix(0.7071 -0.7071 -0.7071 -0.7071 -1936.3003 -4217.5864)">
							<stop  offset="0" style="stop-color:#BEC3D2"/>
							<stop  offset="0.97" style="stop-color:#808797"/>
							<stop  offset="1" style="stop-color:#7E8595"/>
						</linearGradient>
						<circle style="fill:url(#SVGID_26_);" cx="487.605" cy="413.814" r="22.395"/>
						
							<linearGradient id="SVGID_27_" gradientUnits="userSpaceOnUse" x1="-1572.7992" y1="-5006.0737" x2="-1556.2073" y2="-4982.0298" gradientTransform="matrix(0.7071 -0.7071 -0.7071 -0.7071 -1936.3003 -4217.5864)">
							<stop  offset="0" style="stop-color:#BEC3D2"/>
							<stop  offset="1" style="stop-color:#7E8595;stop-opacity:0"/>
						</linearGradient>
						<circle style="fill:url(#SVGID_27_);" cx="487.605" cy="413.814" r="18.691"/>
						
							<linearGradient id="SVGID_28_" gradientUnits="userSpaceOnUse" x1="-1557.5636" y1="-4997.3931" x2="-1552.0798" y2="-5033.1079" gradientTransform="matrix(0.7071 -0.7071 -0.7071 -0.7071 -1936.3003 -4217.5864)">
							<stop  offset="0" style="stop-color:#7E8595;stop-opacity:0"/>
							<stop  offset="1" style="stop-color:#7E8595"/>
						</linearGradient>
						<path style="fill:url(#SVGID_28_);" d="M508.854,420.896c-1.064-3.2-2.867-6.207-5.414-8.754
							c-8.746-8.746-22.926-8.746-31.671,0c-2.547,2.547-4.35,5.554-5.414,8.754c-2.589-7.789-0.786-16.718,5.414-22.917
							c8.746-8.746,22.925-8.746,31.671,0C509.64,404.178,511.444,413.107,508.854,420.896z"/>
					</g>
					
						<linearGradient id="SVGID_29_" gradientUnits="userSpaceOnUse" x1="-1560.9501" y1="-235.5979" x2="-1560.9501" y2="-247.4673" gradientTransform="matrix(0.7071 -0.7071 0.7071 0.7071 1762.4429 -518.8434)">
						<stop  offset="0" style="stop-color:#7E8595;stop-opacity:0"/>
						<stop  offset="1" style="stop-color:#7E8595"/>
					</linearGradient>
					<path style="fill:url(#SVGID_29_);" d="M471.769,429.65c-8.746-8.746-8.746-22.926,0-31.671c8.746-8.746,22.926-8.746,31.671,0
						c3.808,3.808,5.956,8.646,6.448,13.617l-24.503,24.503C480.415,435.606,475.577,433.458,471.769,429.65z"/>
				</g>
				
					<linearGradient id="SVGID_30_" gradientUnits="userSpaceOnUse" x1="-1502.9" y1="-290.809" x2="-1465.8802" y2="-290.809" gradientTransform="matrix(-0.7071 0.7071 0.7071 0.7071 -396.0926 1639.6921)">
					<stop  offset="0" style="stop-color:#FF7044"/>
					<stop  offset="1" style="stop-color:#F92814"/>
				</linearGradient>
				<path style="fill:url(#SVGID_30_);" d="M472.094,429.974l31.671-31.671l-66.512-66.512c-1.777-1.777-4.659-1.777-6.437,0
					l-25.235,25.235c-1.777,1.777-1.777,4.659,0,6.437L472.094,429.974z"/>
				
					<linearGradient id="SVGID_31_" gradientUnits="userSpaceOnUse" x1="-1475.5985" y1="-295.4641" x2="-1525.0889" y2="-269.9456" gradientTransform="matrix(-0.7071 0.7071 0.7071 0.7071 -396.0926 1639.6921)">
					<stop  offset="0" style="stop-color:#FF7044;stop-opacity:0"/>
					<stop  offset="1" style="stop-color:#FFA425"/>
				</linearGradient>
				<path style="fill:url(#SVGID_31_);" d="M405.581,357.026l17.655-17.655c1.777-1.777,4.659-1.777,6.436,0l66.512,66.512
					l-24.091,24.091l-66.512-66.512C403.804,361.685,403.804,358.803,405.581,357.026z"/>
			</g>
		</g>
		<linearGradient id="SVGID_32_" gradientUnits="userSpaceOnUse" x1="308.422" y1="226.4737" x2="264.6631" y2="117.5973">
			<stop  offset="0" style="stop-color:#FFDA45;stop-opacity:0"/>
			<stop  offset="1" style="stop-color:#FCEE21"/>
		</linearGradient>
		<path style="fill:url(#SVGID_32_);" d="M313.904,120.945c-65.815,0-119.168,53.353-119.168,119.168
			c0,65.815,53.353,119.168,119.168,119.168s119.168-53.353,119.168-119.168C433.072,174.299,379.719,120.945,313.904,120.945z
			 M313.904,329.56c-49.4,0-89.447-40.047-89.447-89.447c0-49.4,40.047-89.447,89.447-89.447c49.4,0,89.447,40.047,89.447,89.447
			C403.351,289.513,363.304,329.56,313.904,329.56z"/>
	</g>
</g>
<g>
</g>
<g>
</g>
<g>
</g>
<g>
</g>
<g>
</g>
<g>
</g>
<g>
</g>
<g>
</g>
<g>
</g>
<g>
</g>
<g>
</g>
<g>
</g>
<g>
</g>
<g>
</g>
<g>
</g>
</svg>
