<?xml version="1.0" encoding="iso-8859-1"?>
<!-- Generator: Adobe Illustrator 22.0.0, SVG Export Plug-In . SVG Version: 6.00 Build 0)  -->
<svg version="1.1" id="Capa_1" xmlns="http://www.w3.org/2000/svg" xmlns:xlink="http://www.w3.org/1999/xlink" x="0px" y="0px"
	 viewBox="0 0 510 510" style="enable-background:new 0 0 510 510;" xml:space="preserve">
<g>
	<g>
		<g>
			<radialGradient id="SVGID_1_" cx="192.6924" cy="149.7304" r="249.8145" gradientUnits="userSpaceOnUse">
				<stop  offset="0" style="stop-color:#FFDA45"/>
				<stop  offset="0.3043" style="stop-color:#FFCE3E"/>
				<stop  offset="0.8558" style="stop-color:#FFAE2B"/>
				<stop  offset="1" style="stop-color:#FFA425"/>
			</radialGradient>
			<path style="fill:url(#SVGID_1_);" d="M403.318,209.244c0-88.696-73.14-160.31-162.398-157.819
				C156.135,53.791,87.96,123.656,87.555,208.473c-0.206,43.151,16.902,82.303,44.777,110.916
				c25.627,26.306,40.228,61.408,40.228,98.133v12.086h145.751v-12.086c0-36.549,14.284-71.671,39.871-97.769
				C386.101,291.279,403.318,252.274,403.318,209.244z"/>
			<linearGradient id="SVGID_2_" gradientUnits="userSpaceOnUse" x1="263.0645" y1="226.8727" x2="102.9162" y2="66.7243">
				<stop  offset="0" style="stop-color:#FFDA45;stop-opacity:0"/>
				<stop  offset="1" style="stop-color:#FCEE21"/>
			</linearGradient>
			<circle style="fill:url(#SVGID_2_);" cx="245.436" cy="209.244" r="147.694"/>
			<linearGradient id="SVGID_3_" gradientUnits="userSpaceOnUse" x1="255.8772" y1="165.3022" x2="227.1682" y2="43.6945">
				<stop  offset="0" style="stop-color:#FFDA45;stop-opacity:0"/>
				<stop  offset="1" style="stop-color:#FFFFFF"/>
			</linearGradient>
			<ellipse style="fill:url(#SVGID_3_);" cx="245.436" cy="121.074" rx="95.801" ry="55.685"/>
			<linearGradient id="SVGID_4_" gradientUnits="userSpaceOnUse" x1="250.9188" y1="269.7523" x2="467.9353" y2="-133.868">
				<stop  offset="0" style="stop-color:#FFDA45;stop-opacity:0"/>
				<stop  offset="1" style="stop-color:#B53759"/>
			</linearGradient>
			<path style="fill:url(#SVGID_4_);" d="M316.061,68.013c10.648,21.252,16.651,45.236,16.651,70.625
				c0,87.196-70.686,157.882-157.882,157.882c-25.389,0-49.373-6.002-70.625-16.651c25.922,51.736,79.425,87.257,141.231,87.257
				c87.196,0,157.882-70.686,157.882-157.882C403.318,147.437,367.797,93.935,316.061,68.013z"/>
		</g>
		<radialGradient id="SVGID_5_" cx="245.4358" cy="294.2918" r="95.8012" gradientUnits="userSpaceOnUse">
			<stop  offset="0" style="stop-color:#FCEE21;stop-opacity:0.6"/>
			<stop  offset="0.3263" style="stop-color:#FDEA28;stop-opacity:0.4042"/>
			<stop  offset="0.7865" style="stop-color:#FEE03A;stop-opacity:0.1281"/>
			<stop  offset="1" style="stop-color:#FFDA45;stop-opacity:0"/>
		</radialGradient>
		<circle style="fill:url(#SVGID_5_);" cx="245.436" cy="294.292" r="95.801"/>
		<linearGradient id="SVGID_6_" gradientUnits="userSpaceOnUse" x1="172.5042" y1="451.8235" x2="318.3674" y2="451.8235">
			<stop  offset="0" style="stop-color:#7E8595"/>
			<stop  offset="1" style="stop-color:#555A66"/>
		</linearGradient>
		<path style="fill:url(#SVGID_6_);" d="M302.915,496.961L302.915,496.961c-36.347,17.385-78.61,17.385-114.958,0h0
			c-9.443-4.516-15.453-14.054-15.453-24.521v-78.793h145.863v78.793C318.367,482.907,312.357,492.445,302.915,496.961z"/>
		<linearGradient id="SVGID_7_" gradientUnits="userSpaceOnUse" x1="245.3185" y1="424.1194" x2="245.6392" y2="406.8017">
			<stop  offset="0" style="stop-color:#555A66;stop-opacity:0"/>
			<stop  offset="1" style="stop-color:#555A66"/>
		</linearGradient>
		<polygon style="fill:url(#SVGID_7_);" points="172.504,410.617 186.966,425.079 318.367,425.079 318.367,410.494 172.504,410.494 
					"/>
		<linearGradient id="SVGID_8_" gradientUnits="userSpaceOnUse" x1="245.3185" y1="460.0605" x2="245.6392" y2="442.7428">
			<stop  offset="0" style="stop-color:#555A66;stop-opacity:0"/>
			<stop  offset="1" style="stop-color:#555A66"/>
		</linearGradient>
		<polygon style="fill:url(#SVGID_8_);" points="172.504,446.558 186.966,461.02 318.367,461.02 318.367,446.435 172.504,446.435 		
			"/>
		<linearGradient id="SVGID_9_" gradientUnits="userSpaceOnUse" x1="245.1835" y1="494.3283" x2="245.5037" y2="477.0351">
			<stop  offset="0" style="stop-color:#555A66;stop-opacity:0"/>
			<stop  offset="1" style="stop-color:#555A66"/>
		</linearGradient>
		<path style="fill:url(#SVGID_9_);" d="M173.806,480.703c0.245,0.766,0.523,1.519,0.833,2.257l12.328,12.328h118.923
			c5.348-3.44,9.272-8.62,11.177-14.585H173.806z"/>
		<linearGradient id="SVGID_10_" gradientUnits="userSpaceOnUse" x1="245.4358" y1="329.7291" x2="245.4358" y2="279.0221">
			<stop  offset="0" style="stop-color:#FFDA45;stop-opacity:0"/>
			<stop  offset="1" style="stop-color:#FCEE21"/>
		</linearGradient>
		<path style="fill:url(#SVGID_10_);" d="M286.523,294.292h-2.962c-11.739,0-21.289,9.55-21.289,21.289v6.857h-16.837h-16.837
			v-6.857c0-11.739-9.55-21.289-21.289-21.289h-2.962c-11.739,0-21.289,9.55-21.289,21.289c0,11.739,9.55,21.289,21.289,21.289
			h9.819v55.076h14.432v-55.076h16.837h16.837v55.076h14.431v-55.076h9.819c11.739,0,21.289-9.55,21.289-21.289
			C307.812,303.842,298.262,294.292,286.523,294.292z M214.168,322.438h-9.819c-3.781,0-6.857-3.076-6.857-6.857
			c0-3.781,3.076-6.857,6.857-6.857h2.962c3.781,0,6.857,3.076,6.857,6.857V322.438z M286.523,322.438h-9.819v-6.857
			c0-3.781,3.076-6.857,6.857-6.857h2.962c3.781,0,6.857,3.076,6.857,6.857C293.38,319.362,290.304,322.438,286.523,322.438z"/>
		<linearGradient id="SVGID_11_" gradientUnits="userSpaceOnUse" x1="245.4358" y1="339.9915" x2="245.4358" y2="400.2966">
			<stop  offset="0" style="stop-color:#FFDA45;stop-opacity:0"/>
			<stop  offset="1" style="stop-color:#B53759"/>
		</linearGradient>
		<path style="fill:url(#SVGID_11_);" d="M286.523,294.292h-2.962c-11.739,0-21.289,9.55-21.289,21.289v6.857h-16.837h-16.837
			v-6.857c0-11.739-9.55-21.289-21.289-21.289h-2.962c-11.739,0-21.289,9.55-21.289,21.289c0,11.739,9.55,21.289,21.289,21.289
			h9.819v55.076h14.432v-55.076h16.837h16.837v55.076h14.431v-55.076h9.819c11.739,0,21.289-9.55,21.289-21.289
			C307.812,303.842,298.262,294.292,286.523,294.292z M214.168,322.438h-9.819c-3.781,0-6.857-3.076-6.857-6.857
			c0-3.781,3.076-6.857,6.857-6.857h2.962c3.781,0,6.857,3.076,6.857,6.857V322.438z M286.523,322.438h-9.819v-6.857
			c0-3.781,3.076-6.857,6.857-6.857h2.962c3.781,0,6.857,3.076,6.857,6.857C293.38,319.362,290.304,322.438,286.523,322.438z"/>
		<linearGradient id="SVGID_12_" gradientUnits="userSpaceOnUse" x1="335.3516" y1="175.8421" x2="314.3516" y2="50.8421">
			<stop  offset="0" style="stop-color:#FFDA45;stop-opacity:0"/>
			<stop  offset="0.2328" style="stop-color:#E8A74B;stop-opacity:0.2328"/>
			<stop  offset="0.482" style="stop-color:#D27751;stop-opacity:0.482"/>
			<stop  offset="0.7021" style="stop-color:#C25455;stop-opacity:0.7021"/>
			<stop  offset="0.8822" style="stop-color:#B93F58;stop-opacity:0.8822"/>
			<stop  offset="1" style="stop-color:#B53759"/>
		</linearGradient>
		<path style="fill:url(#SVGID_12_);" d="M403.316,209.24c0,9.24-0.8,18.3-2.32,27.1l-120.67-121.47l-1.79-0.9
			c-1.71-0.86-2.41-2.93-1.58-4.66c-0.02-0.04-0.04-0.08-0.06-0.12l-15.2-16.08c-1.45-0.03-2.78-0.94-3.26-2.39l-3.91-11.77
			c-0.61-1.84,0.39-3.82,2.23-4.43l1.94-0.65c1.49-0.49,2.48-1.92,2.39-3.5c-0.2-4.16,0.12-8.38,1.01-12.55
			c0.08-0.35,0.09-0.71,0.05-1.06l-0.13-0.07c-1.12-0.56-1.8-1.64-1.92-2.8l-1.78-0.89c-0.57-0.29-1.02-0.72-1.35-1.22
			c7.7,0.56,15.25,1.67,22.61,3.29c6.95,1.53,13.73,3.52,20.31,5.94c-0.33,0.48-0.64,0.99-0.91,1.53
			c-2.99,5.97-0.59,13.23,5.38,16.22c5.96,2.99,13.22,0.58,16.21-5.38c0.41-0.82,0.72-1.66,0.93-2.51
			c6.2,3.41,12.15,7.23,17.81,11.42C378.136,111.05,403.316,157.21,403.316,209.24z"/>
		<linearGradient id="SVGID_13_" gradientUnits="userSpaceOnUse" x1="368.8779" y1="405.0547" x2="206.2113" y2="107.0547">
			<stop  offset="0" style="stop-color:#FFDA45;stop-opacity:0"/>
			<stop  offset="1" style="stop-color:#B53759"/>
		</linearGradient>
		<path style="fill:url(#SVGID_13_);" d="M315.536,122.96c-2.74-2.74-7.18-2.74-9.92,0l-2.89,2.88c-2.22,2.23-5.65,2.7-8.39,1.15
			c-3.33-1.89-6.78-3.57-10.33-5.06l-18.82-18.33c-1.1-2.44-3.55-4.15-6.4-4.15h-24.77c-3.87,0-7.01,3.14-7.01,7.02v4.29
			c0,3.18-2.14,5.97-5.23,6.77c-8.24,2.16-16.06,5.36-23.31,9.46c-2.74,1.55-6.17,1.08-8.39-1.15l-2.89-2.88
			c-2.74-2.74-7.18-2.74-9.92,0l-17.51,17.51c-2.74,2.74-2.74,7.18,0,9.92l2.33,2.33c2.28,2.28,2.71,5.82,1.04,8.58
			c-4.48,7.37-8,15.37-10.4,23.85c-0.86,3-3.61,5.06-6.73,5.06h-2.74c-3.87,0-7.01,3.14-7.01,7.01v24.77c0,2.85,1.71,5.3,4.16,6.39
			l13.51,13.84c2.01,6.1,4.59,11.94,7.71,17.45c1.56,2.74,1.1,6.18-1.14,8.41l-0.73,0.74c-2.74,2.73-2.74,7.18,0,9.92l150.87,150.87
			h7.69v-12.09c0-36.55,14.28-71.67,39.87-97.77c27.59-28.14,44.72-66.58,45.11-109.03L315.536,122.96z M246.406,235.89
			c-13.33,0-24.14-10.81-24.14-24.14s10.81-24.13,24.14-24.13c13.33,0,24.13,10.8,24.13,24.13S259.736,235.89,246.406,235.89z"/>
		<linearGradient id="SVGID_14_" gradientUnits="userSpaceOnUse" x1="245.0577" y1="389.7942" x2="245.9884" y2="411.6664">
			<stop  offset="0" style="stop-color:#F9F7FC"/>
			<stop  offset="1" style="stop-color:#F0DDFC"/>
		</linearGradient>
		<path style="fill:url(#SVGID_14_);" d="M314.386,411.187H176.485c-6.908,0-12.507-5.6-12.507-12.507l0,0
			c0-6.908,5.6-12.507,12.507-12.507h137.901c6.908,0,12.507,5.6,12.507,12.507l0,0
			C326.893,405.587,321.294,411.187,314.386,411.187z"/>
		<linearGradient id="SVGID_15_" gradientUnits="userSpaceOnUse" x1="245.0577" y1="425.762" x2="245.9884" y2="447.6342">
			<stop  offset="0" style="stop-color:#7E8595"/>
			<stop  offset="1" style="stop-color:#555A66"/>
		</linearGradient>
		<path style="fill:url(#SVGID_15_);" d="M314.386,447.155H176.485c-6.908,0-12.507-5.6-12.507-12.507v0
			c0-6.908,5.6-12.507,12.507-12.507h137.901c6.908,0,12.507,5.6,12.507,12.507v0C326.893,441.555,321.294,447.155,314.386,447.155z
			"/>
		<linearGradient id="SVGID_16_" gradientUnits="userSpaceOnUse" x1="245.0577" y1="461.7297" x2="245.9884" y2="483.602">
			<stop  offset="0" style="stop-color:#7E8595"/>
			<stop  offset="1" style="stop-color:#555A66"/>
		</linearGradient>
		<path style="fill:url(#SVGID_16_);" d="M314.386,483.122H176.485c-6.908,0-12.507-5.6-12.507-12.507l0,0
			c0-6.908,5.6-12.507,12.507-12.507h137.901c6.908,0,12.507,5.6,12.507,12.507l0,0
			C326.893,477.523,321.294,483.122,314.386,483.122z"/>
		<linearGradient id="SVGID_17_" gradientUnits="userSpaceOnUse" x1="244.7576" y1="496.3265" x2="248.606" y2="524.2273">
			<stop  offset="0" style="stop-color:#F9F7FC"/>
			<stop  offset="1" style="stop-color:#F0DDFC"/>
		</linearGradient>
		<path style="fill:url(#SVGID_17_);" d="M292.924,501.243c-13.268-4.502-29.696-7.168-47.488-7.168s-34.221,2.665-47.488,7.168
			C228.523,512.912,262.349,512.912,292.924,501.243z"/>
	</g>
	<g>
		<g>
			<linearGradient id="SVGID_18_" gradientUnits="userSpaceOnUse" x1="55.0755" y1="208.5401" x2="55.0755" y2="229.2284">
				<stop  offset="0" style="stop-color:#18CFFC"/>
				<stop  offset="1" style="stop-color:#4A98F7"/>
			</linearGradient>
			<path style="fill:url(#SVGID_18_);" d="M65.543,220.936H44.608c-5.553,0-10.054-4.501-10.054-10.054l0,0
				c0-5.553,4.501-10.054,10.054-10.054h20.934c5.553,0,10.054,4.502,10.054,10.054l0,0
				C75.597,216.435,71.095,220.936,65.543,220.936z"/>
			<linearGradient id="SVGID_19_" gradientUnits="userSpaceOnUse" x1="435.7961" y1="208.5401" x2="435.7961" y2="229.2284">
				<stop  offset="0" style="stop-color:#18CFFC"/>
				<stop  offset="1" style="stop-color:#4A98F7"/>
			</linearGradient>
			<path style="fill:url(#SVGID_19_);" d="M446.263,220.936h-20.934c-5.553,0-10.054-4.501-10.054-10.054l0,0
				c0-5.553,4.501-10.054,10.054-10.054h20.934c5.553,0,10.054,4.502,10.054,10.054l0,0
				C456.317,216.435,451.816,220.936,446.263,220.936z"/>
		</g>
		<g>
			
				<linearGradient id="SVGID_20_" gradientUnits="userSpaceOnUse" x1="-437.8253" y1="701.441" x2="-437.8253" y2="722.1293" gradientTransform="matrix(0 1 1 0 -458.3467 458.3467)">
				<stop  offset="0" style="stop-color:#18CFFC"/>
				<stop  offset="1" style="stop-color:#4A98F7"/>
			</linearGradient>
			<path style="fill:url(#SVGID_20_);" d="M255.49,30.988V10.054C255.49,4.502,250.989,0,245.436,0l0,0
				c-5.553,0-10.054,4.502-10.054,10.054v20.934c0,5.553,4.501,10.054,10.054,10.054l0,0
				C250.989,41.043,255.49,36.541,255.49,30.988z"/>
		</g>
		<g>
			
				<linearGradient id="SVGID_21_" gradientUnits="userSpaceOnUse" x1="-73.0208" y1="-179.0309" x2="-73.0208" y2="-158.3423" gradientTransform="matrix(0.7071 0.7071 -0.7071 0.7071 37.5267 252.8467)">
				<stop  offset="0" style="stop-color:#18CFFC"/>
				<stop  offset="1" style="stop-color:#4A98F7"/>
			</linearGradient>
			<path style="fill:url(#SVGID_21_);" d="M111.123,90.787L96.32,75.985c-3.926-3.926-3.926-10.292,0-14.219l0,0
				c3.926-3.926,10.292-3.926,14.219,0l14.803,14.803c3.926,3.926,3.926,10.292,0,14.219l0,0
				C121.415,94.714,115.049,94.714,111.123,90.787z"/>
		</g>
	</g>
	<g>
		<g>
			
				<linearGradient id="SVGID_22_" gradientUnits="userSpaceOnUse" x1="-215.0286" y1="-321.0386" x2="-215.0286" y2="-300.3501" gradientTransform="matrix(0.7071 -0.7071 -0.7071 -0.7071 37.5267 -31.9108)">
				<stop  offset="0" style="stop-color:#18CFFC"/>
				<stop  offset="1" style="stop-color:#4A98F7"/>
			</linearGradient>
			<path style="fill:url(#SVGID_22_);" d="M111.123,330.976L96.32,345.779c-3.926,3.926-3.926,10.292,0,14.219l0,0
				c3.926,3.927,10.292,3.927,14.219,0l14.803-14.803c3.926-3.926,3.926-10.292,0-14.219l0,0
				C121.415,327.049,115.049,327.049,111.123,330.976z"/>
		</g>
		<g>
			
				<linearGradient id="SVGID_23_" gradientUnits="userSpaceOnUse" x1="-967.3974" y1="431.3302" x2="-967.3974" y2="452.0187" gradientTransform="matrix(-0.7071 -0.7071 0.7071 -0.7071 -610.6552 -31.9108)">
				<stop  offset="0" style="stop-color:#18CFFC"/>
				<stop  offset="1" style="stop-color:#4A98F7"/>
			</linearGradient>
			<path style="fill:url(#SVGID_23_);" d="M379.749,330.976l14.803,14.803c3.927,3.926,3.927,10.292,0,14.219l0,0
				c-3.926,3.927-10.292,3.927-14.219,0l-14.803-14.803c-3.926-3.926-3.926-10.292,0-14.219l0,0
				C369.456,327.049,375.822,327.049,379.749,330.976z"/>
		</g>
	</g>
	<g>
		<linearGradient id="SVGID_24_" gradientUnits="userSpaceOnUse" x1="136.2479" y1="209.6013" x2="356.5539" y2="209.6013">
			<stop  offset="0" style="stop-color:#FF7044"/>
			<stop  offset="1" style="stop-color:#F92814"/>
		</linearGradient>
		<path style="fill:url(#SVGID_24_);" d="M349.543,190.205h-2.739c-3.119,0-5.872-2.054-6.728-5.054
			c-2.404-8.477-5.924-16.486-10.398-23.854c-1.675-2.754-1.243-6.297,1.042-8.582l2.329-2.33c2.739-2.739,2.739-7.175,0-9.914
			l-17.513-17.513c-2.739-2.739-7.182-2.739-9.921,0l-2.888,2.88c-2.218,2.225-5.656,2.702-8.395,1.146
			c-7.242-4.101-15.064-7.301-23.311-9.452c-3.081-0.804-5.225-3.595-5.225-6.773v-4.294c0-3.878-3.141-7.019-7.011-7.019h-24.77
			c-3.87,0-7.011,3.141-7.011,7.019v4.294c0,3.178-2.143,5.969-5.225,6.773c-8.246,2.151-16.069,5.351-23.311,9.452
			c-2.739,1.556-6.177,1.079-8.395-1.146l-2.888-2.88c-2.739-2.739-7.182-2.739-9.921,0l-17.513,17.513
			c-2.739,2.739-2.739,7.175,0,9.914l2.329,2.33c2.285,2.285,2.717,5.828,1.042,8.582c-4.473,7.368-7.994,15.377-10.398,23.854
			c-0.856,2.999-3.61,5.054-6.728,5.054h-2.739c-3.87,0-7.011,3.141-7.011,7.011v24.77c0,3.878,3.141,7.011,7.011,7.011h1.608
			c3.252,0,6.066,2.24,6.825,5.403c2.136,8.969,5.508,17.453,9.936,25.268c1.556,2.739,1.094,6.185-1.139,8.41l-0.737,0.744
			c-2.739,2.731-2.739,7.175,0,9.914l17.513,17.513c2.739,2.739,7.182,2.739,9.921,0l0.179-0.179
			c2.292-2.292,5.835-2.709,8.604-1.027c7.927,4.808,16.597,8.522,25.797,10.926c3.089,0.804,5.24,3.587,5.24,6.773
			c0,1.935,0.789,3.684,2.054,4.957c1.265,1.273,3.022,2.054,4.957,2.054h24.77c3.87,0,7.011-3.141,7.011-7.011
			c0-1.593,0.536-3.089,1.459-4.28c0.923-1.191,2.233-2.091,3.781-2.493c9.199-2.404,17.87-6.118,25.797-10.926
			c2.769-1.682,6.311-1.265,8.604,1.027l0.179,0.179c2.739,2.739,7.182,2.739,9.921,0l17.513-17.513
			c2.739-2.739,2.739-7.182,0-9.914l-0.737-0.744c-2.233-2.225-2.694-5.671-1.139-8.41c4.428-7.815,7.8-16.3,9.936-25.268
			c0.759-3.163,3.573-5.403,6.825-5.403h1.608c3.87,0,7.011-3.133,7.011-7.011v-24.77
			C356.554,193.346,353.413,190.205,349.543,190.205z M246.401,235.889c-13.33,0-24.137-10.807-24.137-24.137
			c0-13.33,10.807-24.137,24.137-24.137c13.33,0,24.137,10.807,24.137,24.137C270.538,225.082,259.731,235.889,246.401,235.889z"/>
		
			<linearGradient id="SVGID_25_" gradientUnits="userSpaceOnUse" x1="180.8004" y1="211.7523" x2="312.0015" y2="211.7523" gradientTransform="matrix(-1 0 0 -1 492.8019 423.5046)">
			<stop  offset="0" style="stop-color:#FF7044"/>
			<stop  offset="1" style="stop-color:#F92814"/>
		</linearGradient>
		<path style="fill:url(#SVGID_25_);" d="M246.401,146.152c-36.231,0-65.601,29.369-65.601,65.601s29.369,65.601,65.601,65.601
			s65.601-29.369,65.601-65.601S282.632,146.152,246.401,146.152z M246.401,235.889c-13.33,0-24.137-10.807-24.137-24.137
			c0-13.33,10.807-24.137,24.137-24.137c13.33,0,24.137,10.807,24.137,24.137C270.538,225.082,259.731,235.889,246.401,235.889z"/>
	</g>
	<linearGradient id="SVGID_26_" gradientUnits="userSpaceOnUse" x1="423.0854" y1="306.228" x2="351.5854" y2="127.228">
		<stop  offset="0" style="stop-color:#FFDA45;stop-opacity:0"/>
		<stop  offset="1" style="stop-color:#B53759"/>
	</linearGradient>
	<path style="fill:url(#SVGID_26_);" d="M358.192,98.736c-1.99,2.129-3.832,4.373-5.497,6.73c-1.192,1.692-3.369,2.371-5.31,1.67
		l-2.523-0.903c-2.395-0.861-5.035,0.384-5.896,2.779l-5.503,15.312c-0.754,2.099,0.108,4.383,1.945,5.495
		c0.374,0.594,5.303,5.54,5.891,5.912c-0.001,0.008,0,0.016,0,0.025c-0.595,5.632-0.444,11.377,0.501,17.088
		c0.331,2.022-0.73,4.014-2.583,4.888l-1.628,0.767c-2.3,1.084-3.287,3.83-2.203,6.13l6.937,14.72
		c0.402,0.852,1.032,1.521,1.781,1.974l56.603,56.603c1.707-9.301,2.609-18.885,2.609-28.68
		C403.318,166.218,386.105,127.213,358.192,98.736z"/>
	<g>
		<linearGradient id="SVGID_27_" gradientUnits="userSpaceOnUse" x1="333.1912" y1="141.14" x2="475.4458" y2="141.14">
			<stop  offset="0" style="stop-color:#92F37F"/>
			<stop  offset="1" style="stop-color:#4AB272"/>
		</linearGradient>
		<path style="fill:url(#SVGID_27_);" d="M460.18,100.725l-1.628,0.767c-1.853,0.873-4.065,0.424-5.414-1.119
			c-3.803-4.365-8.138-8.138-12.86-11.264c-1.766-1.168-2.502-3.394-1.784-5.392l0.732-2.037c0.861-2.395-0.382-5.031-2.776-5.892
			l-15.312-5.503c-2.395-0.861-5.035,0.384-5.896,2.779l-0.91,2.521c-0.695,1.944-2.605,3.19-4.668,3.032
			c-5.452-0.409-10.997-0.12-16.5,0.911c-2.056,0.385-4.112-0.673-5.002-2.562l-1.203-2.552c-1.086-2.304-3.832-3.291-6.132-2.207
			l-14.72,6.937c-2.3,1.084-3.287,3.83-2.201,6.134l1.203,2.552c0.89,1.889,0.398,4.148-1.208,5.488
			c-4.298,3.588-8.051,7.68-11.206,12.146c-1.192,1.692-3.369,2.371-5.31,1.67l-2.523-0.903c-2.395-0.861-5.035,0.384-5.896,2.779
			l-5.503,15.312c-0.861,2.395,0.382,5.031,2.776,5.892l2.037,0.732c1.998,0.718,3.247,2.702,3.023,4.808
			c-0.595,5.632-0.444,11.377,0.502,17.088c0.331,2.022-0.73,4.014-2.583,4.888l-1.628,0.767c-2.3,1.084-3.287,3.83-2.203,6.13
			l6.937,14.72c1.086,2.304,3.83,3.287,6.13,2.203l0.955-0.45c1.933-0.911,4.232-0.367,5.569,1.3
			c3.781,4.732,8.161,8.83,12.981,12.234c1.691,1.192,2.382,3.369,1.679,5.317l-0.229,0.649c-0.863,2.39,0.382,5.031,2.776,5.892
			l15.312,5.503c2.395,0.861,5.035-0.384,5.896-2.779l0.056-0.156c0.72-2.004,2.709-3.244,4.825-3.02
			c6.057,0.637,12.25,0.416,18.39-0.732c2.061-0.387,4.118,0.664,5.011,2.558c0.542,1.15,1.501,1.968,2.609,2.37
			c1.108,0.402,2.371,0.374,3.521-0.167l14.72-6.937c2.3-1.084,3.287-3.83,2.203-6.13c-0.446-0.947-0.547-1.986-0.332-2.952
			s0.741-1.868,1.549-2.541c4.794-4.005,8.906-8.64,12.27-13.718c1.174-1.775,3.396-2.519,5.401-1.799l0.156,0.056
			c2.395,0.861,5.035-0.384,5.896-2.779l5.503-15.312c0.861-2.395-0.384-5.035-2.776-5.892l-0.646-0.236
			c-1.95-0.697-3.189-2.616-3.032-4.679c0.443-5.884,0.07-11.871-1.172-17.799c-0.435-2.092,0.61-4.212,2.543-5.123l0.955-0.45
			c2.3-1.084,3.289-3.826,2.203-6.13l-6.937-14.72C465.226,100.628,462.48,99.641,460.18,100.725z M411.68,156.76
			c-7.922,3.733-17.371,0.337-21.104-7.584c-3.733-7.922-0.337-17.371,7.584-21.104c7.922-3.733,17.371-0.338,21.104,7.584
			S419.601,153.027,411.68,156.76z"/>
		
			<linearGradient id="SVGID_28_" gradientUnits="userSpaceOnUse" x1="361.811" y1="142.416" x2="448.029" y2="142.416" gradientTransform="matrix(-1 0 0 -1 809.84 284.8321)">
			<stop  offset="0" style="stop-color:#92F37F"/>
			<stop  offset="1" style="stop-color:#4AB272"/>
		</linearGradient>
		<path style="fill:url(#SVGID_28_);" d="M390.345,182.974c22.4,8.05,47.083-3.582,55.133-25.982s-3.582-47.083-25.982-55.133
			s-47.083,3.582-55.133,25.982C356.312,150.241,367.945,174.924,390.345,182.974z M410.283,127.493
			c8.241,2.962,12.521,12.044,9.56,20.285s-12.044,12.522-20.285,9.56c-8.241-2.962-12.521-12.044-9.56-20.285
			S402.042,124.532,410.283,127.493z"/>
	</g>
	<g>
		<linearGradient id="SVGID_29_" gradientUnits="userSpaceOnUse" x1="254.3493" y1="67.4806" x2="363.2718" y2="67.4806">
			<stop  offset="0" style="stop-color:#18CFFC"/>
			<stop  offset="1" style="stop-color:#4A98F7"/>
		</linearGradient>
		<path style="fill:url(#SVGID_29_);" d="M323.29,16.986l-0.615,1.225c-0.7,1.395-2.237,2.166-3.771,1.875
			c-4.332-0.828-8.705-1.051-13.005-0.705c-1.608,0.131-3.096-0.858-3.605-2.393l-0.519-1.565c-0.61-1.84-2.595-2.836-4.435-2.226
			L285.573,17.1c-1.84,0.61-2.838,2.598-2.228,4.438l0.64,1.939c0.498,1.492-0.061,3.137-1.372,4.013
			c-3.46,2.319-6.648,5.099-9.462,8.306c-1.051,1.198-2.781,1.53-4.203,0.817l-1.921-0.964c-1.735-0.871-3.845-0.171-4.714,1.561
			l-5.561,11.08c-0.869,1.731-0.169,3.842,1.566,4.712l1.921,0.964c1.422,0.714,2.189,2.299,1.857,3.858
			c-0.889,4.172-1.214,8.39-1.005,12.55c0.081,1.575-0.904,3.006-2.398,3.498l-1.937,0.645c-1.84,0.61-2.838,2.598-2.228,4.438
			l3.902,11.766c0.61,1.84,2.595,2.836,4.435,2.226l1.565-0.519c1.535-0.509,3.217,0.093,4.073,1.461
			c2.292,3.655,5.084,7.028,8.336,10.007c1.15,1.056,1.45,2.749,0.75,4.144l-0.615,1.225c-0.869,1.731-0.169,3.841,1.562,4.71
			l11.08,5.561c1.735,0.871,3.841,0.169,4.71-1.562l0.361-0.719c0.73-1.455,2.364-2.21,3.949-1.84
			c4.492,1.058,9.044,1.455,13.534,1.228c1.574-0.081,3.012,0.899,3.507,2.398l0.167,0.497c0.607,1.839,2.595,2.836,4.435,2.226
			l11.766-3.902c1.84-0.61,2.838-2.598,2.228-4.438l-0.04-0.12c-0.511-1.54,0.098-3.219,1.472-4.079
			c3.93-2.466,7.539-5.511,10.679-9.087c1.053-1.201,2.781-1.538,4.206-0.823c0.866,0.434,1.825,0.474,2.679,0.194
			c0.853-0.28,1.597-0.891,2.032-1.756l5.561-11.08c0.869-1.731,0.169-3.842-1.562-4.71c-0.712-0.358-1.261-0.933-1.587-1.613
			c-0.326-0.68-0.434-1.468-0.266-2.251c0.99-4.655,1.275-9.368,0.904-13.993c-0.131-1.616,0.851-3.107,2.391-3.618l0.12-0.04
			c1.84-0.61,2.838-2.598,2.228-4.438l-3.902-11.766c-0.61-1.84-2.598-2.838-4.435-2.226l-0.498,0.163
			c-1.497,0.499-3.142-0.068-4.018-1.379c-2.502-3.736-5.54-7.149-9.073-10.118c-1.245-1.05-1.615-2.811-0.885-4.266l0.361-0.719
			c0.869-1.731,0.172-3.84-1.562-4.71L328,15.424C326.269,14.555,324.159,15.255,323.29,16.986z M320.568,73.382
			c-2.993,5.963-10.254,8.371-16.217,5.378c-5.963-2.993-8.371-10.254-5.378-16.217c2.993-5.963,10.254-8.371,16.217-5.378
			C321.153,60.158,323.561,67.419,320.568,73.382z"/>
		
			<linearGradient id="SVGID_30_" gradientUnits="userSpaceOnUse" x1="276.9294" y1="67.9628" x2="342.6128" y2="67.9628" gradientTransform="matrix(-1 0 0 -1 619.5422 135.9256)">
			<stop  offset="0" style="stop-color:#18CFFC"/>
			<stop  offset="1" style="stop-color:#4A98F7"/>
		</linearGradient>
		<path style="fill:url(#SVGID_30_);" d="M339.117,82.691c8.135-16.208,1.591-35.94-14.617-44.074s-35.94-1.591-44.074,14.617
			c-8.135,16.208-1.591,35.94,14.617,44.074S330.982,98.899,339.117,82.691z M298.974,62.544c2.993-5.963,10.254-8.371,16.217-5.378
			c5.963,2.993,8.371,10.254,5.378,16.217c-2.993,5.963-10.254,8.371-16.217,5.378C298.389,75.767,295.981,68.507,298.974,62.544z"
			/>
	</g>
</g>
<g>
</g>
<g>
</g>
<g>
</g>
<g>
</g>
<g>
</g>
<g>
</g>
<g>
</g>
<g>
</g>
<g>
</g>
<g>
</g>
<g>
</g>
<g>
</g>
<g>
</g>
<g>
</g>
<g>
</g>
</svg>
